<svg xmlns="http://www.w3.org/2000/svg" width="15.105" height="20.5" viewBox="0 0 15.105 20.5">
  <path id="Path_1204" data-name="Path 1204" d="M17.553,16.947a3.23,3.23,0,0,0,3.226-3.237l.011-6.474a3.237,3.237,0,1,0-6.474,0v6.474A3.239,3.239,0,0,0,17.553,16.947ZM16.258,7.129a1.295,1.295,0,1,1,2.589,0l-.011,6.689a1.289,1.289,0,1,1-2.579,0Zm7.013,6.582a5.6,5.6,0,0,1-5.718,5.5,5.6,5.6,0,0,1-5.718-5.5H10a7.526,7.526,0,0,0,6.474,7.251V24.5h2.158V20.961a7.526,7.526,0,0,0,6.474-7.251Z" transform="translate(-10 -4)" fill="#3f63f5"/>
</svg>
